<?xml version="1.0" encoding="utf-8"?>
<!-- Generator: Adobe Illustrator 24.0.1, SVG Export Plug-In . SVG Version: 6.00 Build 0)  -->
<svg version="1.1" id="Layer_1" xmlns="http://www.w3.org/2000/svg" xmlns:xlink="http://www.w3.org/1999/xlink" x="0px" y="0px"
	 viewBox="0 0 739 285" style="enable-background:new 0 0 739 285;" xml:space="preserve">
<style type="text/css">
	.st0{fill:#FFFFFF;}
</style>
<path class="st0" d="M278.94,183.01c0,53.75-43.59,97.34-97.34,97.34H5.52l32.01-32.01h144.08c36.07,0,65.32-29.25,65.32-65.32
	c0-30.25-20.55-55.69-48.41-63.14c-5.06-1.36-10.34-2.12-15.79-2.18h-79.84V132l-2.58-2.58L74.7,103.84
	c-1.18-1.18-1.21-3.09-0.03-4.27c4.79-4.82,16.88-17.04,28.22-28.19v14.31h81.24c2.27,0.06,4.55,0.18,6.79,0.42
	c2.79,0.24,5.55,0.64,8.25,1.12C244.54,95.5,278.94,135.24,278.94,183.01z"/>
<path class="st0" d="M39.68,99.53c-1.18,1.21-1.18,3.12,0,4.3l49.26,49.26l13.88,13.88h53.08c5.34-8.58,14.85-14.28,25.71-14.28
	c1.36,0,2.7,0.09,4,0.27c14.85,1.94,26.31,14.64,26.31,30.04c0,16.73-13.58,30.31-30.31,30.31c-10.88,0-20.4-5.7-25.74-14.31h-55.5
	c-2.3-0.06-4.58-0.21-6.82-0.42c-2.79-0.24-5.55-0.64-8.25-1.12c-45.38-8.28-79.78-48.02-79.78-95.79
	c0-53.75,43.59-97.34,97.37-97.34h176.06l-32.01,32.01H102.89L39.68,99.53z"/>
<path class="st0" d="M369.54,85.59h-86c-2.76,0-5,2.24-5,5v21.62c0,2.76,2.24,5,5,5h26.94v158.45c0,2.76,2.24,5,5,5h21.62
	c2.76,0,5-2.24,5-5V117.2h27.45c2.76,0,5-2.24,5-5V90.59C374.54,87.83,372.3,85.59,369.54,85.59z"/>
<path class="st0" d="M668.09,253.88v21.77c0,2.76-2.24,5-5,5h-21.61c-2.76,0-5-2.24-5-5V88.35c0-2.76,2.24-5,5-5h21.61
	c2.76,0,5,2.24,5,5v22.47c16.05-14.7,37.06-24.08,60.18-25.33c2.84-0.15,5.21,2.15,5.21,5v22.04c0,2.6-1.99,4.8-4.58,4.98
	c-33.73,2.37-60.36,30.5-60.36,64.84L668.09,253.88z"/>
<path class="st0" d="M573.24,86H436.76C419.77,86,406,99.77,406,116.76v132.48c0,16.99,13.77,30.76,30.76,30.76h136.48
	c16.99,0,30.76-13.77,30.76-30.76V116.76C604,99.77,590.23,86,573.24,86z M565.22,211.24c0,16.99-13.77,30.76-30.76,30.76h-58.91
	c-16.99,0-30.76-13.77-30.76-30.76v-56.48c0-16.99,13.77-30.76,30.76-30.76h58.91c16.99,0,30.76,13.77,30.76,30.76V211.24z"/>
</svg>
