<?xml version="1.0" encoding="utf-8"?>
<!-- Generator: Adobe Illustrator 24.0.1, SVG Export Plug-In . SVG Version: 6.00 Build 0)  -->
<svg version="1.1" id="Layer_1" xmlns="http://www.w3.org/2000/svg" xmlns:xlink="http://www.w3.org/1999/xlink" x="0px" y="0px"
	 viewBox="0 0 285 285" style="enable-background:new 0 0 285 285;" xml:space="preserve">
<style type="text/css">
	.st0{fill:#FFFFFF;}
</style>
<path class="st0" d="M279.2,183.2c0,53.8-43.6,97.3-97.3,97.3H5.8l32-32h144.1c36.1,0,65.3-29.3,65.3-65.3
	c0-30.3-20.6-55.7-48.4-63.1c-5.1-1.4-10.3-2.1-15.8-2.2h-79.8v14.3l-2.6-2.6L75,104c-1.2-1.2-1.2-3.1,0-4.3
	c4.8-4.8,16.9-17,28.2-28.2v14.3h81.2c2.3,0.1,4.6,0.2,6.8,0.4c2.8,0.2,5.6,0.6,8.3,1.1C244.8,95.7,279.2,135.4,279.2,183.2z"/>
<path class="st0" d="M40,99.7c-1.2,1.2-1.2,3.1,0,4.3l49.3,49.3l13.9,13.9h53.1c5.3-8.6,14.9-14.3,25.7-14.3c1.4,0,2.7,0.1,4,0.3
	c14.9,1.9,26.3,14.6,26.3,30c0,16.7-13.6,30.3-30.3,30.3c-10.9,0-20.4-5.7-25.7-14.3h-55.5c-2.3-0.1-4.6-0.2-6.8-0.4
	c-2.8-0.2-5.6-0.6-8.3-1.1c-45.4-8.3-79.8-48-79.8-95.8c0-53.8,43.6-97.3,97.4-97.3h176.1l-32,32h-144L40,99.7z"/>
</svg>
