<svg width="276" height="237" viewBox="0 0 276 237" fill="none" xmlns="http://www.w3.org/2000/svg">
<path d="M259.652 114L254 119.621" stroke="#04D361" stroke-width="2" stroke-miterlimit="10" stroke-linecap="round" stroke-linejoin="round"/>
<path d="M259.652 119.621L254 114" stroke="#04D361" stroke-width="2" stroke-miterlimit="10" stroke-linecap="round" stroke-linejoin="round"/>
<path d="M18.7866 141.619L10.7935 141.619" stroke="#04D361" stroke-width="2" stroke-miterlimit="10" stroke-linecap="round" stroke-linejoin="round"/>
<path d="M14.791 145.603L14.791 137.645" stroke="#04D361" stroke-width="2" stroke-miterlimit="10" stroke-linecap="round" stroke-linejoin="round"/>
<path d="M193.858 10.6612C191.181 10.6612 189 8.50186 189 5.8306C189 3.16865 191.171 1 193.858 1C196.535 1 198.715 3.15935 198.715 5.8306C198.706 8.50186 196.535 10.6612 193.858 10.6612Z" stroke="#04D361" stroke-width="2" stroke-miterlimit="10" stroke-linecap="round" stroke-linejoin="round"/>
<path d="M36.8489 12.7498C36.8489 13.716 37.6366 14.4993 38.6082 14.4993C39.5799 14.4993 40.3676 13.716 40.3676 12.7498C40.3676 11.7835 39.5799 11.0002 38.6082 11.0002C37.6366 11.0002 36.8489 11.7835 36.8489 12.7498Z" fill="#9871F5"/>
<path d="M36.8489 24.9703C36.8489 25.9366 37.6366 26.7199 38.6082 26.7199C39.5799 26.7199 40.3676 25.9366 40.3676 24.9703C40.3676 24.0041 39.5799 23.2208 38.6082 23.2208C37.6366 23.2208 36.8489 24.0041 36.8489 24.9703Z" fill="#9871F5"/>
<path d="M36.8489 37.1799C36.8489 38.1462 37.6366 38.9294 38.6082 38.9294C39.5799 38.9294 40.3676 38.1462 40.3676 37.1799C40.3676 36.2137 39.5799 35.4304 38.6082 35.4304C37.6366 35.4304 36.8489 36.2137 36.8489 37.1799Z" fill="#9871F5"/>
<path d="M36.8489 49.4001C36.8489 50.3664 37.6366 51.1497 38.6082 51.1497C39.5799 51.1497 40.3676 50.3664 40.3676 49.4001C40.3676 48.4339 39.5799 47.6506 38.6082 47.6506C37.6366 47.6506 36.8489 48.4339 36.8489 49.4001Z" fill="#9871F5"/>
<path d="M36.8489 61.6107C36.8489 62.5769 37.6366 63.3602 38.6082 63.3602C39.5799 63.3602 40.3676 62.5769 40.3676 61.6107C40.3676 60.6445 39.5799 59.8612 38.6082 59.8612C37.6366 59.8612 36.8489 60.6445 36.8489 61.6107Z" fill="#9871F5"/>
<path d="M24.5689 12.7495C24.5689 13.7157 25.3566 14.499 26.3282 14.499C27.2998 14.499 28.0875 13.7157 28.0875 12.7495C28.0875 11.7833 27.2998 11 26.3282 11C25.3566 11 24.5689 11.7833 24.5689 12.7495Z" fill="#9871F5"/>
<path d="M24.5689 24.9702C24.5689 25.9364 25.3566 26.7197 26.3282 26.7197C27.2998 26.7197 28.0875 25.9364 28.0875 24.9702C28.0875 24.004 27.2998 23.2207 26.3282 23.2207C25.3566 23.2207 24.5689 24.004 24.5689 24.9702Z" fill="#9871F5"/>
<path d="M24.5689 37.1802C24.5689 38.1464 25.3566 38.9297 26.3282 38.9297C27.2998 38.9297 28.0875 38.1464 28.0875 37.1802C28.0875 36.2139 27.2998 35.4307 26.3282 35.4307C25.3566 35.4307 24.5689 36.2139 24.5689 37.1802Z" fill="#9871F5"/>
<path d="M24.5689 49.4004C24.5689 50.3666 25.3566 51.1499 26.3282 51.1499C27.2998 51.1499 28.0875 50.3666 28.0875 49.4004C28.0875 48.4342 27.2998 47.6509 26.3282 47.6509C25.3566 47.6509 24.5689 48.4342 24.5689 49.4004Z" fill="#9871F5"/>
<path d="M24.5689 61.6108C24.5689 62.5771 25.3566 63.3603 26.3282 63.3603C27.2998 63.3603 28.0875 62.5771 28.0875 61.6108C28.0875 60.6446 27.2998 59.8613 26.3282 59.8613C25.3566 59.8613 24.5689 60.6446 24.5689 61.6108Z" fill="#9871F5"/>
<path d="M12.2797 12.7495C12.2797 13.7157 13.0674 14.499 14.039 14.499C15.0107 14.499 15.7983 13.7157 15.7983 12.7495C15.7983 11.7833 15.0107 11 14.039 11C13.0674 11 12.2797 11.7833 12.2797 12.7495Z" fill="#9871F5"/>
<path d="M12.2796 24.9702C12.2796 25.9364 13.0673 26.7197 14.0389 26.7197C15.0105 26.7197 15.7982 25.9364 15.7982 24.9702C15.7982 24.004 15.0105 23.2207 14.0389 23.2207C13.0673 23.2207 12.2796 24.004 12.2796 24.9702Z" fill="#9871F5"/>
<path d="M12.2797 37.1802C12.2797 38.1464 13.0674 38.9297 14.039 38.9297C15.0107 38.9297 15.7983 38.1464 15.7983 37.1802C15.7983 36.2139 15.0107 35.4307 14.039 35.4307C13.0674 35.4307 12.2797 36.2139 12.2797 37.1802Z" fill="#9871F5"/>
<path d="M12.2797 49.4004C12.2797 50.3666 13.0674 51.1499 14.039 51.1499C15.0107 51.1499 15.7983 50.3666 15.7983 49.4004C15.7983 48.4342 15.0107 47.6509 14.039 47.6509C13.0674 47.6509 12.2797 48.4342 12.2797 49.4004Z" fill="#9871F5"/>
<path d="M12.2796 61.6108C12.2796 62.5771 13.0673 63.3603 14.0389 63.3603C15.0105 63.3603 15.7982 62.5771 15.7982 61.6108C15.7982 60.6446 15.0105 59.8613 14.0389 59.8613C13.0673 59.8613 12.2796 60.6446 12.2796 61.6108Z" fill="#9871F5"/>
<path d="M-9.18801e-05 12.7495C-9.19292e-05 13.7157 0.787586 14.499 1.75923 14.499C2.73088 14.499 3.51855 13.7157 3.51855 12.7495C3.51855 11.7833 2.73088 11 1.75923 11C0.787586 11 -9.1831e-05 11.7833 -9.18801e-05 12.7495Z" fill="#9871F5"/>
<path d="M-9.18801e-05 24.9702C-9.19292e-05 25.9364 0.787586 26.7197 1.75923 26.7197C2.73088 26.7197 3.51855 25.9364 3.51855 24.9702C3.51855 24.004 2.73088 23.2207 1.75923 23.2207C0.787586 23.2207 -9.1831e-05 24.004 -9.18801e-05 24.9702Z" fill="#9871F5"/>
<path d="M-9.18801e-05 37.1802C-9.19292e-05 38.1464 0.787586 38.9297 1.75923 38.9297C2.73088 38.9297 3.51855 38.1464 3.51855 37.1802C3.51855 36.2139 2.73088 35.4307 1.75923 35.4307C0.787586 35.4307 -9.1831e-05 36.2139 -9.18801e-05 37.1802Z" fill="#9871F5"/>
<path d="M-9.18801e-05 49.4004C-9.19292e-05 50.3666 0.787586 51.1499 1.75923 51.1499C2.73088 51.1499 3.51855 50.3666 3.51855 49.4004C3.51855 48.4342 2.73088 47.6509 1.75923 47.6509C0.787586 47.6509 -9.1831e-05 48.4342 -9.18801e-05 49.4004Z" fill="#9871F5"/>
<path d="M-9.18801e-05 61.6108C-9.19292e-05 62.5771 0.787586 63.3603 1.75923 63.3603C2.73088 63.3603 3.51855 62.5771 3.51855 61.6108C3.51855 60.6446 2.73088 59.8613 1.75923 59.8613C0.787586 59.8613 -9.1831e-05 60.6446 -9.18801e-05 61.6108Z" fill="#9871F5"/>
<path d="M272.289 210.75C272.289 211.716 273.077 212.499 274.048 212.499C275.02 212.499 275.808 211.716 275.808 210.75C275.808 209.784 275.02 209 274.048 209C273.077 209 272.289 209.784 272.289 210.75Z" fill="#9871F5"/>
<path d="M272.289 222.96C272.289 223.926 273.077 224.709 274.049 224.709C275.02 224.709 275.808 223.926 275.808 222.96C275.808 221.994 275.02 221.21 274.049 221.21C273.077 221.21 272.289 221.994 272.289 222.96Z" fill="#9871F5"/>
<path d="M272.289 235.18C272.289 236.146 273.077 236.929 274.049 236.929C275.02 236.929 275.808 236.146 275.808 235.18C275.808 234.213 275.02 233.43 274.049 233.43C273.077 233.43 272.289 234.213 272.289 235.18Z" fill="#9871F5"/>
<path d="M260 210.75C260 211.716 260.788 212.499 261.759 212.499C262.731 212.499 263.519 211.716 263.519 210.75C263.519 209.783 262.731 209 261.759 209C260.788 209 260 209.783 260 210.75Z" fill="#9871F5"/>
<path d="M260 222.96C260 223.926 260.788 224.709 261.759 224.709C262.731 224.709 263.519 223.926 263.519 222.96C263.519 221.994 262.731 221.21 261.759 221.21C260.788 221.21 260 221.994 260 222.96Z" fill="#9871F5"/>
<path d="M260 235.18C260 236.146 260.788 236.93 261.759 236.93C262.731 236.93 263.519 236.146 263.519 235.18C263.519 234.214 262.731 233.431 261.759 233.431C260.788 233.431 260 234.214 260 235.18Z" fill="#9871F5"/>
</svg>
