<?xml version="1.0" encoding="utf-8"?>
<!-- Generator: Adobe Illustrator 24.0.1, SVG Export Plug-In . SVG Version: 6.00 Build 0)  -->
<svg version="1.1" id="Layer_1" xmlns="http://www.w3.org/2000/svg" xmlns:xlink="http://www.w3.org/1999/xlink" x="0px" y="0px"
	 viewBox="0 0 472 472" style="enable-background:new 0 0 472 472;" xml:space="preserve">
<style type="text/css">
	.st0{fill:#E83F5B;}
</style>
<path class="st0" d="M61.2,364.7L41.9,384L61.2,364.7L61.2,364.7z M469,115.2c-3.2-3.1-8-3.7-11.8-1.6l-108.3,59.1v-35.5
	c0-3.1-0.3-6.2-0.8-9.1c-1.5-7.9-11.2-10.9-16.9-5.2l0,0c-2.4,2.4-3.3,5.7-2.7,9c0.3,1.7,0.5,3.5,0.5,5.3l0,197.4
	c0,16.6-13.4,30-30,30H93.6c-2.7,0-5.2,1.1-7.1,2.9l0,0c-6.3,6.3-1.8,17.1,7.1,17.1h205.3c27.6,0,50-22.4,50-50v-34.8L457.2,359
	c3.1,1.7,6.9,1.6,9.9-0.2c3-1.8,4.9-5.1,4.9-8.6l0-227.6C472,119.9,471,117.2,469,115.2z M452,333.4l-103.1-56.3v-81.5L452,139.3
	V333.4z"/>
<path class="st0" d="M337.7,74.1c-3.9-3.9-10.2-3.9-14.1,0l-14.3,14.3c-3.3-0.7-6.8-1.1-10.3-1.1H50c-27.6,0-50,22.4-50,50v197.4
	c0,17.1,8.6,32.2,21.7,41.2l-10.5,10.5c-1.9,2-2.9,4.5-2.9,7.1s1,5.1,2.9,7.1c3.9,3.9,10.2,3.9,14.1,0l6.1-6.1L41.8,384h0l19.3-19.3
	h0l253.1-253.1h0l14.4-14.4v0l8.9-8.9c1.9-2,2.9-4.5,2.9-7.1S339.6,76,337.7,74.1z M36.3,361.4c-9.6-5-16.2-15-16.3-26.6V137.3
	c0-16.6,13.4-30,30-30h240.3L36.3,361.4z"/>
</svg>
