<svg width="32" height="32" viewBox="0 0 32 32" fill="none" xmlns="http://www.w3.org/2000/svg">
<g clip-path="url(#clip0)">
<path d="M21.1843 16.7951L13.6843 21.4826C13.3953 21.6632 13.031 21.6728 12.733 21.5076C12.4348 21.3424 12.2499 21.0284 12.2499 20.6876L12.2499 11.3126C12.2499 10.9718 12.4348 10.6579 12.733 10.4926C12.8746 10.4141 13.0311 10.3751 13.1874 10.3751C13.3601 10.3751 13.5325 10.4228 13.6843 10.5176L21.1843 15.2051C21.4584 15.3764 21.6249 15.6769 21.6249 16.0001C21.6249 16.3234 21.4585 16.6238 21.1843 16.7951ZM14.125 13.0041L14.125 18.9962L18.9186 16.0001L14.125 13.0041Z" />
<path d="M27.3125 28.1875L4.6875 28.1875C2.10281 28.1875 -3.44703e-06 26.0847 -2.99511e-06 23.5L-3.72425e-07 8.5C7.94958e-08 5.91531 2.10281 3.8125 4.6875 3.8125L27.3125 3.8125C29.8972 3.81251 32 5.91532 32 8.50001L32 23.5C32 26.0847 29.8972 28.1875 27.3125 28.1875ZM30.125 8.50001C30.125 6.94919 28.8633 5.68751 27.3125 5.6875L4.6875 5.6875C3.13669 5.6875 1.875 6.94919 1.875 8.5L1.875 23.5C1.875 25.0508 3.13668 26.3125 4.6875 26.3125L27.3125 26.3125C28.8633 26.3125 30.125 25.0508 30.125 23.5L30.125 8.50001Z" />
</g>
<defs>
<clipPath id="clip0">
<rect width="32" height="32" fill="white" transform="matrix(1 1.74846e-07 1.74846e-07 -1 -3.8147e-06 32)"/>
</clipPath>
</defs>
</svg>
